<?xml version="1.0" encoding="UTF-8"?>
<svg id="Layer_1" data-name="Layer 1" xmlns="http://www.w3.org/2000/svg" viewBox="0 0 420.34 98.36">
  <defs>
    <style>
      .cls-1 {
        fill: #26a2dc;
      }

      .cls-2 {
        fill: #c8e4f2;
      }
    </style>
  </defs>
  <path class="cls-1" d="M352.28,29.04c-11.46-12.67-29.52-10.04-39.66,2.76,0,0-4.57,5.43-8.38,9.95-3.79-4.51-8.36-9.93-8.36-9.93-4.61-5.81-11.31-10.1-18.87-10.95-7.72-.94-15.72,2.38-20.79,8.14-12.79,14.02-8.75,40.05,9.64,47.14,7.15,2.9,15.83,1.65,22.13-2.52,3.13-1.96,5.8-4.51,8.03-7.16l8.23-9.77c4.23,5.05,7.65,9.15,8.18,9.73,9.97,12.9,27.95,15.76,39.59,3.29,10.19-11.01,10.26-29.52.26-40.68ZM288.65,60.28c-1.73,2.05-3.59,3.83-5.81,5.22-6.24,4.17-14.31,3.25-19.32-2.33-6.76-7.12-6.79-20.49-.14-27.69,6.13-6.92,15.8-6.46,22.38-.4.51.28,6.21,6.99,12.21,14.14-4.43,5.26-9.32,11.07-9.32,11.07ZM325.58,65.55c-2.23-1.39-3.98-3.1-5.69-5.22,0,0-4.9-5.82-9.35-11.1l9.53-11.32c11.7-14.52,29.94-6.51,30.01,11.46.17,13.34-12.29,23.82-24.49,16.18Z"/>
  <g>
    <path class="cls-2" d="M17.95,77.69L0,21.47h10.04l13.33,45.37,13.45-45.37h10.68l13.68,45.31,13.22-45.31h9.47l-17.95,56.22h-10.16l-13.8-45.77-13.74,45.77h-10.27Z"/>
    <path class="cls-2" d="M106.05,78.73c-3.23,0-6.19-.62-8.86-1.85-2.67-1.23-4.81-3.05-6.41-5.45-1.6-2.4-2.4-5.38-2.4-8.92,0-5.04,1.58-8.87,4.73-11.49,3.15-2.62,7.62-4.4,13.39-5.34,5.77-.94,12.53-1.45,20.26-1.53v-3.92c0-4.81-1.19-8.11-3.58-9.9-2.39-1.79-5.41-2.68-9.06-2.68-3.89,0-7.16.98-9.81,2.94s-3.98,5.06-3.98,9.29h-9.35c0-4.62.99-8.35,2.97-11.2,1.98-2.85,4.71-4.93,8.2-6.23,3.48-1.31,7.48-1.96,11.98-1.96,2.89,0,5.65.27,8.28.81,2.64.54,5,1.52,7.1,2.94,2.1,1.42,3.76,3.42,4.99,5.97,1.23,2.56,1.85,5.86,1.85,9.9v37.58h-9l-.4-8.54c-2.58,2.89-5.57,5.21-8.98,6.96-3.41,1.75-7.38,2.63-11.92,2.63ZM108.59,71.34c3.85,0,7.31-.9,10.39-2.71,3.08-1.81,5.66-4.1,7.73-6.87v-11.43c-10.24.12-17.58,1.08-22.02,2.89-4.44,1.81-6.67,4.77-6.67,8.89,0,2.81.89,5.05,2.68,6.72,1.79,1.67,4.42,2.51,7.88,2.51Z"/>
    <path class="cls-2" d="M170.19,77.69c-4.54,0-8.02-.72-10.45-2.16s-4.09-3.52-4.99-6.23c-.9-2.71-1.36-5.97-1.36-9.78v-30.25h-9.41v-7.79h9.41v-12.87h9.58v12.87h13.85v7.79h-13.85v29.78c0,3.5.45,6.19,1.36,8.05.9,1.87,3.07,2.8,6.49,2.8h6.12v7.79h-6.75Z"/>
    <path class="cls-2" d="M206.51,77.69c-4.54,0-8.02-.72-10.45-2.16-2.43-1.44-4.09-3.52-4.99-6.23s-1.36-5.97-1.36-9.78v-30.25h-9.41v-7.79h9.41v-12.87h9.58v12.87h13.85v7.79h-13.85v29.78c0,3.5.45,6.19,1.36,8.05.9,1.87,3.07,2.8,6.49,2.8h6.12v7.79h-6.75Z"/>
    <path class="cls-1" d="M240.23,77.69c-4.58,0-8.08-.72-10.5-2.16-2.42-1.44-4.08-3.52-4.96-6.23-.89-2.71-1.33-5.97-1.33-9.78V0h9.58v59.05c0,3.5.45,6.18,1.36,8.02.9,1.85,3.07,2.77,6.49,2.77h2.6v7.85h-3.23Z"/>
    <path class="cls-1" d="M369.43,98.36V21.47h9.35l.29,9.18c2-3,4.59-5.44,7.76-7.33,3.17-1.88,6.86-2.83,11.05-2.83,4.62,0,8.6,1.09,11.95,3.26,3.35,2.17,5.94,5.42,7.76,9.73,1.83,4.31,2.74,9.68,2.74,16.1s-.97,11.69-2.92,16.02c-1.94,4.33-4.69,7.6-8.23,9.81-3.54,2.21-7.7,3.32-12.47,3.32-4,0-7.5-.8-10.51-2.4-3-1.6-5.41-3.78-7.21-6.55v28.57h-9.58ZM394.94,70.82c5.12,0,8.98-1.84,11.57-5.51,2.6-3.67,3.9-8.92,3.9-15.73s-1.21-12.16-3.64-15.82c-2.42-3.66-5.98-5.48-10.68-5.48-4.12,0-7.59,1.1-10.42,3.29-2.83,2.19-5.03,4.75-6.61,7.68v21.7c1.54,2.92,3.62,5.3,6.23,7.13,2.62,1.83,5.83,2.74,9.64,2.74Z"/>
  </g>
</svg>