<?xml version="1.0" encoding="UTF-8"?>
<svg version="1.1" xmlns="http://www.w3.org/2000/svg" width="84" height="97">
<path d="M0 0 C4.71696913 2.9952754 8.224292 6.38288654 11.53125 10.86328125 C12.19125 10.16203125 12.85125 9.46078125 13.53125 8.73828125 C18.5368102 3.71837847 23.93791561 -1.23737211 31.21875 -1.44921875 C36.55382951 -1.379932 39.28222839 -0.36597518 43.53125 2.86328125 C47.95818422 7.76880296 49.09116142 13.41781729 49.53125 19.86328125 C49.08311285 25.30628041 46.97402053 29.6554506 43.53125 33.86328125 C39.16155927 37.53779391 35.19441489 39.11718533 29.53125 38.86328125 C22.02113521 36.71753417 16.91068615 31.3091302 11.53125 25.86328125 C11.01175781 26.47816406 10.49226563 27.09304687 9.95703125 27.7265625 C9.25964844 28.53480469 8.56226563 29.34304687 7.84375 30.17578125 C7.15925781 30.97628906 6.47476563 31.77679688 5.76953125 32.6015625 C1.88366916 36.52811425 -1.78336173 38.44185004 -7.35546875 38.9140625 C-12.08697957 38.80036631 -15.71452179 37.45062492 -19.234375 34.265625 C-23.59475486 29.11148667 -25.34740088 23.58415561 -25.46875 16.86328125 C-24.58787095 11.06759107 -22.80717081 5.9537923 -18.46875 1.86328125 C-12.88039361 -1.99534578 -6.22606651 -2.86674898 0 0 Z M-14.34375 10.36328125 C-16.87814367 13.93332416 -17.92175153 17.49007414 -17.46875 21.86328125 C-15.8575623 25.08565665 -14.44628944 27.11383435 -11.59375 29.30078125 C-8.35694102 30.15758363 -6.69031186 29.91648417 -3.46875 28.86328125 C0.83060645 25.79918766 4.40750531 22.77173199 6.53125 17.86328125 C0.67425352 10.4847008 0.67425352 10.4847008 -7.96875 7.30078125 C-11.64985941 7.57635748 -11.64985941 7.57635748 -14.34375 10.36328125 Z M21.046875 13.6875 C19.82588889 15.37835997 18.67260471 17.11767993 17.53125 18.86328125 C18.74866979 20.33143514 19.98073761 21.78744972 21.21875 23.23828125 C21.90324219 24.05039062 22.58773437 24.8625 23.29296875 25.69921875 C25.65790097 27.98573262 27.39964877 28.93558923 30.53125 29.86328125 C34.04645928 29.77540102 35.44541717 28.92765587 38.28125 26.80078125 C41.30900603 22.84787755 41.53125 20.83327568 41.53125 15.86328125 C40.4120706 13.0246832 40.4120706 13.0246832 38.53125 10.86328125 C38.11875 10.26515625 37.70625 9.66703125 37.28125 9.05078125 C31.37318965 5.0417403 24.99607296 8.83414356 21.046875 13.6875 Z " fill="#5097DB" transform="translate(30.46875,30.13671875)"/>
</svg>
